<svg xmlns="http://www.w3.org/2000/svg" xmlns:xlink="http://www.w3.org/1999/xlink" width="424" height="95" viewBox="0 0 424 95"><defs><path id="a" d="M.372.672h3.979V10.72H.372z"/></defs><g fill="none" fill-rule="evenodd"><path fill="#FFF" d="M100.046 45.166c-3.137 0-5.182 1.21-5.182 3.397 0 7.122 17.18 3.306 17.136 15.035 0 5.817-5 9.402-12 9.402-5 0-9.727-2.094-13-5.166l2.319-4.747c3.273 3.071 7.363 4.747 10.772 4.747 3.728 0 5.954-1.443 5.954-3.956 0-7.262-17.18-3.213-17.18-14.802 0-5.585 4.68-9.076 11.59-9.076 4.136 0 8.181 1.35 11.136 3.35l-2.227 4.842c-3.455-2.142-6.91-3.026-9.318-3.026M125.243 41l10.301 21.258L145.802 41H152v32h-4.86l-.045-23.908-9.855 20.57h-3.435l-9.855-20.57V73H119V41zm52.086 19.977L171.41 46.76l-5.92 14.217h11.838zm2.017 4.8H163.52L160.516 73H155l13.855-32h5.425L188 73h-5.65l-3.004-7.222zm25.938-7.268c4.67 0 7.352-2.103 7.352-6.446 0-4.206-2.681-6.218-7.352-6.218h-7.18V58.51h7.18zM212.204 73l-5.536-9.691c-.433.046-.908.046-1.384.046h-7.18V73H193V41h12.284c7.742 0 12.197 3.977 12.197 10.926 0 5.12-2.248 8.732-6.271 10.377L218 73h-5.795zM248 41v4.846h-9.894V73h-5.258V45.846H223V41zm30.047 10.391c0-6.042-4.285-9.475-11.761-9.475h-10.333v19.181h10.333c7.476 0 11.761-3.524 11.761-9.706m.953 0c0 6.73-4.62 10.621-12.714 10.621h-10.333V73H255V41h11.286C274.38 41 279 44.8 279 51.391M305.349 41v.916H285.93v14.146h17.276v.916H285.93v15.107H306V73h-21V41zm5.571 15.978c0 8.285 7.031 15.106 15.58 15.106s15.58-6.82 15.58-15.106c0-8.288-7.031-15.063-15.58-15.063s-15.58 6.775-15.58 15.063m32.08 0C343 65.768 335.554 73 326.5 73S310 65.768 310 56.978 317.446 41 326.5 41 343 48.188 343 56.978m31.047-5.587c0-6.042-4.285-9.475-11.761-9.475h-10.333v19.181h10.333c7.476 0 11.761-3.524 11.761-9.706m.953 0c0 6.73-4.62 10.621-12.714 10.621h-10.333V73H351V41h11.286C370.38 41 375 44.8 375 51.391M381.961 41v31.085H397V73h-16V41zm41.388 0v.916H403.93v14.146h17.276v.916H403.93v15.107H424V73h-21V41zM31.5 25a1.505 1.505 0 0 0-1.5 1.5 1.506 1.506 0 0 0 1.5 1.5 1.506 1.506 0 0 0 1.5-1.5c0-.395-.16-.781-.44-1.06A1.509 1.509 0 0 0 31.5 25m8 27a1.504 1.504 0 0 0 1.5-1.5c0-.396-.16-.782-.44-1.062a1.505 1.505 0 0 0-2.12 0c-.28.28-.44.666-.44 1.062 0 .394.16.781.44 1.06.279.28.666.44 1.06.44"/><path fill="#FFF" d="M48.962 71.213a2.598 2.598 0 0 1 2.59 2.6 2.598 2.598 0 0 1-2.59 2.603H22.056a2.598 2.598 0 0 1-2.588-2.602 2.598 2.598 0 0 1 2.588-2.601h26.906zm0 14.124H22.056a2.598 2.598 0 0 1-2.588-2.603 2.598 2.598 0 0 1 2.588-2.602h26.906a2.598 2.598 0 0 1 2.59 2.602 2.598 2.598 0 0 1-2.59 2.603zM35.51 91.283a4.07 4.07 0 0 1-3.622-2.23h7.244a4.07 4.07 0 0 1-3.622 2.23zM13.537 39.277a1.485 1.485 0 0 1-1.479-1.486c0-.82.663-1.488 1.48-1.488.815 0 1.479.668 1.479 1.488 0 .819-.664 1.486-1.48 1.486zm8.067-14.482c.816 0 1.48.667 1.48 1.487 0 .82-.664 1.487-1.48 1.487a1.485 1.485 0 0 1-1.48-1.487c0-.82.665-1.487 1.48-1.487zm-.632 26.9c0-.82.664-1.489 1.48-1.489.815 0 1.48.668 1.48 1.488s-.665 1.487-1.48 1.487c-.816 0-1.48-.668-1.48-1.487zm27.576-1.489c.816 0 1.48.668 1.48 1.488s-.664 1.487-1.48 1.487a1.485 1.485 0 0 1-1.48-1.487c0-.82.665-1.488 1.48-1.488zm8.915-10.93a1.485 1.485 0 0 1-1.48-1.485c0-.82.664-1.488 1.48-1.488s1.479.668 1.479 1.488c0 .819-.663 1.486-1.48 1.486zM49.175 27.77a1.485 1.485 0 0 1-1.48-1.487c0-.82.665-1.487 1.48-1.487s1.48.667 1.48 1.487c0 .82-.665 1.487-1.48 1.487zm15.078-1.006a7.57 7.57 0 0 0 .173-1.608c0-4.162-3.37-7.548-7.51-7.548a7.49 7.49 0 0 0-1.581.17C54.273 13.874 50.719 11 46.505 11c-5.048 0-9.154 4.127-9.154 9.2v22.489c0 1.027.828 1.858 1.85 1.858 1.02 0 1.849-.831 1.849-1.858v-22.49c0-3.023 2.447-5.483 5.456-5.483 3.007 0 5.455 2.46 5.455 5.483v.484c0 .377-.07.747-.197 1.096a5.123 5.123 0 0 0-2.59-.7c-2.854 0-5.177 2.334-5.177 5.203 0 2.87 2.323 5.204 5.178 5.204s5.178-2.335 5.178-5.204c0-.456-.06-.898-.17-1.32a6.958 6.958 0 0 0 1.418-3.404 3.79 3.79 0 0 1 1.314-.234c2.103 0 3.813 1.718 3.813 3.831 0 .847-.277 1.66-.784 2.327a7.753 7.753 0 0 0-4.173 5.392 5.209 5.209 0 0 0-3.486 4.917c0 2.869 2.323 5.203 5.178 5.203s5.177-2.334 5.177-5.203a5.211 5.211 0 0 0-3.078-4.755 4.002 4.002 0 0 1 3.745-2.617c2.202 0 3.994 1.801 3.994 4.015v9.51c0 2.214-1.792 4.015-3.994 4.015a3.95 3.95 0 0 1-2.9-1.253 1.843 1.843 0 0 0-2.615-.07 1.866 1.866 0 0 0-.07 2.627 7.724 7.724 0 0 0 3.7 2.175 6.601 6.601 0 0 1 1.131 3.723c0 3.675-2.975 6.665-6.633 6.665-3.09 0-5.695-2.136-6.426-5.017a5.203 5.203 0 0 0 4.231-5.115c0-2.869-2.322-5.203-5.177-5.203-2.855 0-5.178 2.334-5.178 5.203 0 1.78.895 3.354 2.255 4.292a10.402 10.402 0 0 0 5.807 8.526 5.5 5.5 0 0 1-4.88 2.983c-3.035 0-5.502-2.48-5.502-5.528v-5.912a1.854 1.854 0 0 0-1.85-1.858c-1.02 0-1.849.831-1.849 1.858v5.912a9.23 9.23 0 0 0 1.83 5.528H31.82a9.23 9.23 0 0 0 1.83-5.528V34.445a1.853 1.853 0 0 0-1.849-1.858c-1.022 0-1.85.832-1.85 1.858v27.522c0 3.049-2.467 5.528-5.5 5.528a5.5 5.5 0 0 1-4.882-2.984 10.401 10.401 0 0 0 5.807-8.526 5.207 5.207 0 0 0 2.255-4.292c0-2.869-2.323-5.203-5.178-5.203s-5.178 2.334-5.178 5.203a5.205 5.205 0 0 0 4.233 5.116c-.732 2.88-3.336 5.017-6.427 5.017-3.658 0-6.633-2.99-6.633-6.665 0-1.349.39-2.624 1.13-3.724a7.71 7.71 0 0 0 3.7-2.174 1.866 1.866 0 0 0-.07-2.628 1.843 1.843 0 0 0-2.613.07 3.95 3.95 0 0 1-2.9 1.253c-2.203 0-3.995-1.8-3.995-4.014v-9.51c0-2.214 1.792-4.015 3.994-4.015a4.002 4.002 0 0 1 3.745 2.616A5.212 5.212 0 0 0 8.36 37.79c0 2.869 2.322 5.203 5.177 5.203 2.855 0 5.178-2.334 5.178-5.203a5.21 5.21 0 0 0-3.486-4.917 7.756 7.756 0 0 0-4.173-5.392 3.83 3.83 0 0 1-.784-2.327c0-2.112 1.71-3.831 3.813-3.831.452 0 .895.08 1.312.234a6.881 6.881 0 0 0 1.258 3.195 5.2 5.2 0 0 0-.229 1.53c0 2.87 2.323 5.203 5.178 5.203s5.178-2.334 5.178-5.203c0-2.87-2.323-5.204-5.178-5.204-.868 0-1.687.218-2.406.598a3.21 3.21 0 0 1-.16-.993v-.484c0-3.023 2.449-5.483 5.457-5.483s5.455 2.46 5.455 5.483c0 1.027.828 1.859 1.85 1.859a1.854 1.854 0 0 0 1.849-1.86c0-5.071-4.106-9.198-9.155-9.198-4.213 0-7.767 2.875-8.829 6.776a7.49 7.49 0 0 0-1.58-.17c-4.142 0-7.511 3.387-7.511 7.55 0 .544.06 1.083.173 1.607C2.95 27.233 0 30.493 0 34.433v9.512a7.74 7.74 0 0 0 5.473 7.401 10.448 10.448 0 0 0-.725 3.815c0 5.724 4.635 10.382 10.332 10.382.292 0 .58-.015.867-.04l.089.205a9.246 9.246 0 0 0 2.21 3.085 6.32 6.32 0 0 0-2.477 5.02c0 1.74.704 3.318 1.839 4.46a6.317 6.317 0 0 0-1.839 4.461c0 3.484 2.821 6.319 6.287 6.319h5.912C28.8 92.463 31.865 95 35.51 95s6.71-2.538 7.542-5.947h5.91c3.467 0 6.287-2.835 6.287-6.319a6.315 6.315 0 0 0-1.837-4.46 6.313 6.313 0 0 0 1.837-4.46 6.32 6.32 0 0 0-2.487-5.03 9.223 9.223 0 0 0 2.202-3.076l.09-.204c.285.024.574.04.866.04 5.697 0 10.332-4.659 10.332-10.383 0-1.312-.25-2.607-.725-3.815A7.74 7.74 0 0 0 71 43.945v-9.511c0-3.941-2.95-7.2-6.747-7.671z"/><g transform="translate(33)"><mask id="b" fill="#fff"><use xlink:href="#a"/></mask><path fill="#FFF" d="M2.361 10.72c1.099 0 1.99-.904 1.99-2.02V2.69c0-1.115-.891-2.02-1.99-2.02C1.263.67.372 1.575.372 2.69V8.7c0 1.116.891 2.02 1.99 2.02" mask="url(#b)"/></g><path fill="#FFF" d="M26.133 7.155c.383.543 1.08.845 1.796.845.352 0 .708-.073 1.034-.226.992-.467 1.331-1.501.759-2.31l-1.854-2.619c-.573-.808-1.84-1.085-2.831-.618-.992.467-1.331 1.5-.759 2.309l1.855 2.62zm17.904.618c.326.154.682.227 1.034.227.716 0 1.413-.303 1.796-.845l1.855-2.62c.572-.808.233-1.842-.759-2.308-.99-.467-2.258-.19-2.83.619l-1.855 2.619c-.572.808-.233 1.842.759 2.308"/></g></svg>