<svg xmlns="http://www.w3.org/2000/svg" width="21" height="22" viewBox="0 0 21 22"><path fill="none" stroke="#ffffff" stroke-linecap="round" stroke-linejoin="round" stroke-width="2" d="M7.963 3.977V2.503c0-.83.684-1.503 1.522-1.503h2.03c.84 0 1.522.671 1.522 1.503V3.88a7.63 7.63 0 0 1 2.493 1.373l1.169-.665a1.538 1.538 0 0 1 2.082.547l1.015 1.732c.42.717.171 1.635-.56 2.05l-1.125.64a7.432 7.432 0 0 1 0 2.887l1.125.64a1.49 1.49 0 0 1 .56 2.051l-1.015 1.732a1.538 1.538 0 0 1-2.082.547l-1.17-.665a7.63 7.63 0 0 1-2.492 1.373v1.376c0 .83-.684 1.503-1.522 1.503h-2.03c-.84 0-1.522-.671-1.522-1.503v-1.474a7.631 7.631 0 0 1-2.325-1.37l-1.337.76a1.538 1.538 0 0 1-2.082-.547l-1.015-1.732a1.489 1.489 0 0 1 .56-2.05l1.38-.785a7.44 7.44 0 0 1 0-2.598l-1.38-.784a1.489 1.489 0 0 1-.56-2.051L2.22 5.134a1.538 1.538 0 0 1 2.08-.547l1.337.76a7.631 7.631 0 0 1 2.325-1.37zM10.5 13.5a2.5 2.5 0 1 0 0-5 2.5 2.5 0 0 0 0 5z"/></svg>