<svg xmlns="http://www.w3.org/2000/svg" width="22" height="22" viewBox="0 0 22 22"><g fill="none" fill-rule="evenodd" transform="translate(1 1)"><path stroke="#767676" stroke-linecap="round" stroke-linejoin="round" stroke-width="2" d="M18 8A8 8 0 1 0 2 8m16 3a8 8 0 0 1-8 8"/><circle cx="10" cy="19" r="2" fill="#767676"/><path fill="#404040" stroke="#767676" stroke-linecap="round" stroke-linejoin="round" stroke-width="2" d="M0 9c0-.828.666-1.5 1.5-1.5H3v5H1.5C.672 12.5 0 11.826 0 11V9zm17-1.5h1.5c.828 0 1.5.674 1.5 1.5v2c0 .828-.666 1.5-1.5 1.5H17v-5z"/></g></svg>