<svg xmlns="http://www.w3.org/2000/svg" width="22" height="22" viewBox="0 0 22 22"><g fill="none" fill-rule="evenodd" stroke="#767676" stroke-linecap="round" stroke-linejoin="round" stroke-width="2" transform="translate(1 1)"><circle cx="10" cy="10" r="10"/><circle cx="10" cy="10" r="5.5"/><path fill="#404040" d="M1.59 14.613l2.718-1.908a1.297 1.297 0 0 1 1.64.125l1.222 1.222c.425.425.48 1.159.125 1.64L5.387 18.41c-.532.72-1.478.79-2.111.157l-1.844-1.844c-.632-.631-.563-1.579.157-2.11zM14.612 1.59c.532-.72 1.48-.79 2.11-.158l1.845 1.844c.633.634.562 1.58-.158 2.111L15.69 7.295c-.481.356-1.215.3-1.64-.124l-1.22-1.222c-.424-.425-.482-1.157-.124-1.64l1.908-2.72zM1.589 5.387c-.72-.532-.789-1.48-.157-2.11l1.844-1.845C3.909.8 4.856.87 5.386 1.59l1.909 2.719c.355.481.3 1.215-.125 1.64L5.948 7.17c-.424.424-1.156.482-1.64.124L1.59 5.387zm13.024 13.024l-1.908-2.72c-.358-.483-.3-1.215.124-1.64l1.222-1.221c.425-.425 1.159-.48 1.64-.125l2.72 1.908c.719.532.79 1.478.157 2.111l-1.844 1.844c-.632.632-1.579.563-2.111-.157z"/></g></svg>