<svg xmlns="http://www.w3.org/2000/svg" width="22" height="16" viewBox="0 0 22 16"><g fill="none" fill-rule="evenodd" stroke-linecap="round" stroke-linejoin="round" stroke-width="2"><g stroke="#56D0B5" transform="translate(11.244 2.463)"><circle cx="4.878" cy="1.951" r="1.951"/><path d="M4.878 6.83C2.79 6.83.445 8.098.244 8.536.079 8.895 0 10 0 10c0 .403.327.732.73.732h8.296c.403 0 .73-.329.73-.732 0 0-.079-1.105-.244-1.463-.201-.438-2.545-1.708-4.634-1.708z"/></g><g stroke="#50E3C2" transform="translate(1 1)"><circle cx="6.829" cy="2.627" r="2.627"/><path fill="#767676" d="M6.83 8.405c-2.925 0-6.206 1.71-6.489 2.299-.23.483-.341 1.97-.341 1.97 0 .542.458.985 1.022.985h11.614c.565 0 1.023-.443 1.023-.985 0 0-.11-1.487-.342-1.97-.282-.59-3.564-2.299-6.488-2.299z"/></g></g></svg>